PathFileType	4	(X/Y/Z)	C:\Users\italobelli\Desktop\GitHub\PTbot_officialCBL\Personal_Results\ABD22_noisy1.trc
DataRate	CameraRate	NumFrames	NumMarkers	Units	OrigDataRate	OrigDataStartFrame	OrigNumFrames
106.125000	106.125000	51	9	m	106.125000	319	850
Frame#	Time		gu		centelbow		EpL		centpxt8		centijc7		ij		ts		aa		ai
			X1	Y1	Z1	X2	Y2	Z2	X3	Y3	Z3	X4	Y4	Z4	X5	Y5	Z5	X6	Y6	Z6	X7	Y7	Z7	X8	Y8	Z8	X9	Y9	Z9

319	2.9965	-0.10682	0.066773	0.10549	-0.10052	0.26143	0.27093	-0.11791	0.27675	0.24852	-0.046816	-0.15316	-0.008669	-0.046816	0.031938	-0.008669	0	0	0	-0.13672	-0.015119	0.040962	-0.14778	0.086201	0.10289	-0.14252	-0.07019	0.14004
320	3.0059	-0.10703	0.066798	0.10528	-0.10028	0.26247	0.2696	-0.1177	0.27765	0.24712	-0.046816	-0.15316	-0.008669	-0.046816	0.031938	-0.008669	0	0	0	-0.13683	-0.01523	0.041131	-0.14797	0.086331	0.10269	-0.14255	-0.069917	0.14047
321	3.0153	-0.10723	0.066822	0.10508	-0.099994	0.26351	0.26826	-0.11745	0.27856	0.24571	-0.046816	-0.15316	-0.008669	-0.046816	0.031938	-0.008669	0	0	0	-0.13694	-0.01534	0.041302	-0.14816	0.086459	0.10249	-0.14258	-0.069644	0.1409
322	3.0247	-0.10743	0.066846	0.10489	-0.099672	0.26454	0.26692	-0.11716	0.27946	0.24431	-0.046816	-0.15316	-0.008669	-0.046816	0.031938	-0.008669	0	0	0	-0.13706	-0.015449	0.041478	-0.14836	0.086586	0.1023	-0.14261	-0.06937	0.14132
323	3.0342	-0.10763	0.066869	0.10469	-0.099311	0.26558	0.26558	-0.11684	0.28037	0.24292	-0.046816	-0.15316	-0.008669	-0.046816	0.031938	-0.008669	0	0	0	-0.13718	-0.015556	0.041656	-0.14855	0.086711	0.10212	-0.14263	-0.069095	0.14175
324	3.0436	-0.10783	0.066891	0.1045	-0.098912	0.26662	0.26424	-0.11648	0.28128	0.24152	-0.046816	-0.15316	-0.008669	-0.046816	0.031938	-0.008669	0	0	0	-0.1373	-0.015662	0.041838	-0.14874	0.086835	0.10193	-0.14265	-0.06882	0.14217
325	3.053	-0.10803	0.066914	0.10431	-0.098478	0.26765	0.26289	-0.11609	0.28218	0.24012	-0.046816	-0.15316	-0.008669	-0.046816	0.031938	-0.008669	0	0	0	-0.13743	-0.015766	0.042022	-0.14893	0.086957	0.10175	-0.14267	-0.068544	0.14259
326	3.0624	-0.10823	0.066936	0.10412	-0.09801	0.26869	0.26154	-0.11566	0.28309	0.23873	-0.046816	-0.15316	-0.008669	-0.046816	0.031938	-0.008669	0	0	0	-0.13755	-0.015869	0.042209	-0.14912	0.087077	0.10157	-0.14269	-0.068268	0.14302
327	3.0718	-0.10842	0.066958	0.10394	-0.097509	0.26971	0.26019	-0.11521	0.284	0.23733	-0.046816	-0.15316	-0.008669	-0.046816	0.031938	-0.008669	0	0	0	-0.13768	-0.01597	0.042398	-0.14931	0.087196	0.10139	-0.1427	-0.067992	0.14343
328	3.0813	-0.10862	0.066979	0.10375	-0.096977	0.27074	0.25885	-0.11472	0.2849	0.23595	-0.046816	-0.15316	-0.008669	-0.046816	0.031938	-0.008669	0	0	0	-0.13781	-0.01607	0.042589	-0.1495	0.087313	0.10122	-0.14272	-0.067716	0.14385
329	3.0907	-0.10882	0.067	0.10357	-0.096416	0.27175	0.2575	-0.11421	0.2858	0.23456	-0.046816	-0.15316	-0.008669	-0.046816	0.031938	-0.008669	0	0	0	-0.13795	-0.016169	0.042783	-0.14969	0.087429	0.10105	-0.14273	-0.06744	0.14426
330	3.1001	-0.10901	0.067021	0.10339	-0.095827	0.27276	0.25616	-0.11367	0.28669	0.23318	-0.046816	-0.15316	-0.008669	-0.046816	0.031938	-0.008669	0	0	0	-0.13808	-0.016266	0.042978	-0.14987	0.087543	0.10088	-0.14274	-0.067164	0.14467
331	3.1095	-0.1092	0.067041	0.10322	-0.095212	0.27377	0.25481	-0.11311	0.28758	0.23181	-0.046816	-0.15316	-0.008669	-0.046816	0.031938	-0.008669	0	0	0	-0.13822	-0.016362	0.043175	-0.15006	0.087655	0.10072	-0.14275	-0.066888	0.14508
332	3.119	-0.1094	0.067062	0.10304	-0.094573	0.27476	0.25347	-0.11252	0.28846	0.23044	-0.046816	-0.15316	-0.008669	-0.046816	0.031938	-0.008669	0	0	0	-0.13836	-0.016456	0.043373	-0.15024	0.087765	0.10056	-0.14275	-0.066613	0.14548
333	3.1284	-0.10959	0.067081	0.10287	-0.093911	0.27575	0.25214	-0.11192	0.28934	0.22908	-0.046816	-0.15316	-0.008669	-0.046816	0.031938	-0.008669	0	0	0	-0.1385	-0.016549	0.043572	-0.15042	0.087874	0.1004	-0.14276	-0.066339	0.14589
334	3.1378	-0.10978	0.067101	0.1027	-0.093228	0.27673	0.25081	-0.11129	0.2902	0.22772	-0.046816	-0.15316	-0.008669	-0.046816	0.031938	-0.008669	0	0	0	-0.13864	-0.016641	0.043773	-0.1506	0.087981	0.10024	-0.14276	-0.066066	0.14628
335	3.1472	-0.10997	0.067121	0.10253	-0.092525	0.27769	0.24948	-0.11064	0.29106	0.22637	-0.046816	-0.15316	-0.008669	-0.046816	0.031938	-0.008669	0	0	0	-0.13879	-0.016731	0.043974	-0.15078	0.088086	0.10008	-0.14276	-0.065794	0.14668
336	3.1567	-0.11015	0.06714	0.10237	-0.091804	0.27865	0.24816	-0.10998	0.29191	0.22503	-0.046816	-0.15316	-0.008669	-0.046816	0.031938	-0.008669	0	0	0	-0.13893	-0.01682	0.044176	-0.15096	0.088189	0.099933	-0.14277	-0.065523	0.14707
337	3.1661	-0.11034	0.067159	0.1022	-0.091067	0.27959	0.24684	-0.1093	0.29275	0.2237	-0.046816	-0.15316	-0.008669	-0.046816	0.031938	-0.008669	0	0	0	-0.13908	-0.016907	0.044378	-0.15113	0.08829	0.099783	-0.14277	-0.065253	0.14745
338	3.1755	-0.11052	0.067177	0.10204	-0.090315	0.28052	0.24553	-0.10861	0.29358	0.22238	-0.046816	-0.15316	-0.008669	-0.046816	0.031938	-0.008669	0	0	0	-0.13922	-0.016993	0.04458	-0.15131	0.08839	0.099636	-0.14276	-0.064985	0.14783
339	3.1849	-0.1107	0.067196	0.10188	-0.08955	0.28143	0.24423	-0.1079	0.29439	0.22106	-0.046816	-0.15316	-0.008669	-0.046816	0.031938	-0.008669	0	0	0	-0.13937	-0.017077	0.044782	-0.15148	0.088487	0.099491	-0.14276	-0.064718	0.14821
340	3.1943	-0.11088	0.067214	0.10172	-0.088773	0.28233	0.24293	-0.10719	0.2952	0.21976	-0.046816	-0.15316	-0.008669	-0.046816	0.031938	-0.008669	0	0	0	-0.13952	-0.01716	0.044984	-0.15165	0.088583	0.099349	-0.14276	-0.064453	0.14858
341	3.2038	-0.11106	0.067232	0.10157	-0.087986	0.28321	0.24165	-0.10646	0.29598	0.21847	-0.046816	-0.15316	-0.008669	-0.046816	0.031938	-0.008669	0	0	0	-0.13967	-0.017242	0.045186	-0.15181	0.088677	0.099209	-0.14276	-0.06419	0.14895
342	3.2132	-0.11124	0.06725	0.10142	-0.087192	0.28408	0.24037	-0.10573	0.29676	0.21719	-0.046816	-0.15316	-0.008669	-0.046816	0.031938	-0.008669	0	0	0	-0.13982	-0.017322	0.045386	-0.15198	0.088768	0.099071	-0.14275	-0.063929	0.14931
343	3.2226	-0.11141	0.067268	0.10126	-0.08639	0.28493	0.2391	-0.10499	0.29752	0.21592	-0.046816	-0.15316	-0.008669	-0.046816	0.031938	-0.008669	0	0	0	-0.13997	-0.0174	0.045586	-0.15214	0.088858	0.098936	-0.14275	-0.063671	0.14967
344	3.232	-0.11158	0.067285	0.10112	-0.085583	0.28576	0.23784	-0.10425	0.29826	0.21466	-0.046816	-0.15316	-0.008669	-0.046816	0.031938	-0.008669	0	0	0	-0.14012	-0.017478	0.045785	-0.1523	0.088946	0.098802	-0.14274	-0.063414	0.15002
345	3.2415	-0.11175	0.067303	0.10097	-0.084773	0.28657	0.2366	-0.1035	0.29898	0.21342	-0.046816	-0.15316	-0.008669	-0.046816	0.031938	-0.008669	0	0	0	-0.14027	-0.017554	0.045983	-0.15246	0.089032	0.098672	-0.14274	-0.06316	0.15036
346	3.2509	-0.11192	0.06732	0.10082	-0.083961	0.28736	0.23536	-0.10276	0.29969	0.21219	-0.046816	-0.15316	-0.008669	-0.046816	0.031938	-0.008669	0	0	0	-0.14042	-0.017628	0.04618	-0.15261	0.089116	0.098543	-0.14273	-0.062909	0.1507
347	3.2603	-0.11209	0.067337	0.10068	-0.083149	0.28813	0.23414	-0.10201	0.30037	0.21097	-0.046816	-0.15316	-0.008669	-0.046816	0.031938	-0.008669	0	0	0	-0.14057	-0.017701	0.046374	-0.15276	0.089197	0.098416	-0.14273	-0.062661	0.15104
348	3.2697	-0.11225	0.067354	0.10054	-0.082338	0.28887	0.23293	-0.10126	0.30104	0.20977	-0.046816	-0.15316	-0.008669	-0.046816	0.031938	-0.008669	0	0	0	-0.14072	-0.017772	0.046567	-0.15291	0.089277	0.098292	-0.14272	-0.062415	0.15136
349	3.2792	-0.11241	0.067371	0.1004	-0.081531	0.2896	0.23174	-0.10052	0.30168	0.20858	-0.046816	-0.15316	-0.008669	-0.046816	0.031938	-0.008669	0	0	0	-0.14087	-0.017842	0.046758	-0.15306	0.089355	0.098169	-0.14271	-0.062173	0.15169
350	3.2886	-0.11257	0.067388	0.10026	-0.080728	0.2903	0.23055	-0.099779	0.30231	0.20741	-0.046816	-0.15316	-0.008669	-0.046816	0.031938	-0.008669	0	0	0	-0.14101	-0.017911	0.046946	-0.1532	0.08943	0.098049	-0.14271	-0.061934	0.152
351	3.298	-0.11272	0.067405	0.10013	-0.079931	0.29098	0.22939	-0.099046	0.30291	0.20625	-0.046816	-0.15316	-0.008669	-0.046816	0.031938	-0.008669	0	0	0	-0.14116	-0.017978	0.047132	-0.15334	0.089503	0.09793	-0.1427	-0.061698	0.15231
352	3.3074	-0.11288	0.067421	0.099994	-0.079142	0.29163	0.22823	-0.09832	0.30349	0.20512	-0.046816	-0.15316	-0.008669	-0.046816	0.031938	-0.008669	0	0	0	-0.14131	-0.018044	0.047316	-0.15348	0.089574	0.097814	-0.1427	-0.061466	0.15261
353	3.3168	-0.11303	0.067438	0.099862	-0.078362	0.29225	0.2271	-0.097604	0.30404	0.204	-0.046816	-0.15316	-0.008669	-0.046816	0.031938	-0.008669	0	0	0	-0.14146	-0.018108	0.047496	-0.15361	0.089643	0.097699	-0.14269	-0.061237	0.1529
354	3.3263	-0.11317	0.067454	0.099732	-0.077593	0.29285	0.22598	-0.096898	0.30457	0.20289	-0.046816	-0.15316	-0.008669	-0.046816	0.031938	-0.008669	0	0	0	-0.1416	-0.018171	0.047674	-0.15374	0.08971	0.097586	-0.14269	-0.061013	0.15319
355	3.3357	-0.11332	0.067471	0.099604	-0.076838	0.29342	0.22488	-0.096205	0.30507	0.20181	-0.046816	-0.15316	-0.008669	-0.046816	0.031938	-0.008669	0	0	0	-0.14175	-0.018232	0.047848	-0.15387	0.089775	0.097476	-0.14269	-0.060792	0.15346
356	3.3451	-0.11346	0.067487	0.099478	-0.076096	0.29396	0.22379	-0.095525	0.30555	0.20075	-0.046816	-0.15316	-0.008669	-0.046816	0.031938	-0.008669	0	0	0	-0.14189	-0.018292	0.048019	-0.15399	0.089837	0.097367	-0.14269	-0.060575	0.15373
357	3.3545	-0.1136	0.067504	0.099353	-0.07537	0.29447	0.22273	-0.094861	0.306	0.1997	-0.046816	-0.15316	-0.008669	-0.046816	0.031938	-0.008669	0	0	0	-0.14203	-0.018351	0.048186	-0.15411	0.089897	0.097259	-0.14268	-0.060363	0.15399
358	3.364	-0.11373	0.06752	0.099231	-0.074662	0.29495	0.22168	-0.094213	0.30642	0.19868	-0.046816	-0.15316	-0.008669	-0.046816	0.031938	-0.008669	0	0	0	-0.14217	-0.018408	0.048349	-0.15422	0.089955	0.097154	-0.14268	-0.060155	0.15425
359	3.3734	-0.11386	0.067536	0.09911	-0.073973	0.2954	0.22065	-0.093583	0.30681	0.19767	-0.046816	-0.15316	-0.008669	-0.046816	0.031938	-0.008669	0	0	0	-0.14231	-0.018463	0.048509	-0.15433	0.09001	0.09705	-0.14269	-0.059952	0.15449
360	3.3828	-0.11399	0.067553	0.098991	-0.073305	0.29582	0.21965	-0.092974	0.30717	0.19669	-0.046816	-0.15316	-0.008669	-0.046816	0.031938	-0.008669	0	0	0	-0.14245	-0.018517	0.048663	-0.15444	0.090063	0.096948	-0.14269	-0.059754	0.15473
361	3.3922	-0.11411	0.067569	0.098873	-0.072659	0.2962	0.21866	-0.092386	0.30749	0.19573	-0.046816	-0.15316	-0.008669	-0.046816	0.031938	-0.008669	0	0	0	-0.14258	-0.01857	0.048814	-0.15454	0.090114	0.096848	-0.14269	-0.05956	0.15496
362	3.4016	-0.11423	0.067585	0.098757	-0.072038	0.29655	0.2177	-0.09182	0.30779	0.19479	-0.046816	-0.15316	-0.008669	-0.046816	0.031938	-0.008669	0	0	0	-0.14272	-0.018621	0.04896	-0.15464	0.090162	0.096749	-0.1427	-0.059371	0.15518
363	3.4111	-0.11435	0.067602	0.098643	-0.071441	0.29687	0.21675	-0.091279	0.30805	0.19388	-0.046816	-0.15316	-0.008669	-0.046816	0.031938	-0.008669	0	0	0	-0.14285	-0.018671	0.049101	-0.15474	0.090208	0.096652	-0.1427	-0.059188	0.15539
364	3.4205	-0.11447	0.067618	0.098531	-0.070872	0.29715	0.21584	-0.090764	0.30828	0.19298	-0.046816	-0.15316	-0.008669	-0.046816	0.031938	-0.008669	0	0	0	-0.14298	-0.018719	0.049236	-0.15483	0.090252	0.096556	-0.14271	-0.05901	0.15559
365	3.4299	-0.11458	0.067635	0.09842	-0.070332	0.29739	0.21494	-0.090277	0.30848	0.19212	-0.046816	-0.15316	-0.008669	-0.046816	0.031938	-0.008669	0	0	0	-0.1431	-0.018766	0.049367	-0.15491	0.090293	0.096462	-0.14272	-0.058837	0.15578
366	3.4393	-0.11468	0.067651	0.09831	-0.069823	0.29759	0.21407	-0.089819	0.30864	0.19127	-0.046816	-0.15316	-0.008669	-0.046816	0.031938	-0.008669	0	0	0	-0.14323	-0.018811	0.049492	-0.15499	0.090331	0.096369	-0.14273	-0.05867	0.15596
367	3.4488	-0.11478	0.067668	0.098203	-0.069345	0.29776	0.21322	-0.089391	0.30876	0.19046	-0.046816	-0.15316	-0.008669	-0.046816	0.031938	-0.008669	0	0	0	-0.14335	-0.018855	0.049611	-0.15507	0.090368	0.096278	-0.14274	-0.058509	0.15613
368	3.4582	-0.11488	0.067685	0.098097	-0.068901	0.29789	0.2124	-0.088995	0.30885	0.18967	-0.046816	-0.15316	-0.008669	-0.046816	0.031938	-0.008669	0	0	0	-0.14347	-0.018897	0.049725	-0.15514	0.090401	0.096188	-0.14276	-0.058353	0.15629
369	3.4676	-0.11498	0.067701	0.097992	-0.068492	0.29798	0.21161	-0.088633	0.3089	0.1889	-0.046816	-0.15316	-0.008669	-0.046816	0.031938	-0.008669	0	0	0	-0.14358	-0.018938	0.049832	-0.15521	0.090432	0.0961	-0.14277	-0.058204	0.15644
